<?xml version="1.0" encoding="utf-8"?>
<!-- Generator: Adobe Illustrator 26.5.0, SVG Export Plug-In . SVG Version: 6.00 Build 0)  -->
<svg version="1.1" id="Warstwa_1" xmlns="http://www.w3.org/2000/svg" xmlns:xlink="http://www.w3.org/1999/xlink" x="0px" y="0px"
	 viewBox="0 0 321 79" style="enable-background:new 0 0 321 79;" xml:space="preserve">
<style type="text/css">
	.st0{fill:url(#SVGID_1_);}
	.st1{fill:url(#SVGID_00000152232542571668605100000017908066204187982776_);}
	.st2{fill:url(#SVGID_00000026884187377978593180000000170115183475765922_);}
	.st3{fill:url(#SVGID_00000093146489720284689010000008187419381328354969_);}
	.st4{fill:url(#SVGID_00000161606777220179918390000003107080515751081101_);}
	.st5{fill:url(#SVGID_00000051382694033098653700000004479200567952934579_);}
	.st6{fill:url(#SVGID_00000129913735576065769670000002589587482443606418_);}
	.st7{fill:url(#SVGID_00000117668251852388385880000013153897421992619920_);}
	.st8{fill:url(#SVGID_00000013910680034488517650000015294185073945751967_);}
</style>
<g>
	<g>
		<linearGradient id="SVGID_1_" gradientUnits="userSpaceOnUse" x1="6.4917" y1="44.0205" x2="313.1016" y2="44.0205">
			<stop  offset="0" style="stop-color:#996633"/>
			<stop  offset="0.5" style="stop-color:#FAF2A2"/>
			<stop  offset="0.7373" style="stop-color:#CAAC68"/>
			<stop  offset="1" style="stop-color:#996633"/>
		</linearGradient>
		<path class="st0" d="M6.5,58.7V30.2h15v28.5H6.5z M24.3,58.7V30.2c8.3,0,15,6.7,15,15v13.6H24.3z M42,58.7V32.5
			c8.3,0,15,6.7,15,15v11.3H42z"/>
		
			<linearGradient id="SVGID_00000155827784037780071530000015015602591822020765_" gradientUnits="userSpaceOnUse" x1="6.4917" y1="44.0205" x2="313.1016" y2="44.0205">
			<stop  offset="0" style="stop-color:#996633"/>
			<stop  offset="0.5" style="stop-color:#FAF2A2"/>
			<stop  offset="0.7373" style="stop-color:#CAAC68"/>
			<stop  offset="1" style="stop-color:#996633"/>
		</linearGradient>
		<path style="fill:url(#SVGID_00000155827784037780071530000015015602591822020765_);" d="M75.1,30.2v28.5c-8.3,0-15-6.7-15-15
			V30.2H75.1z M92.9,30.2v28.5h-15V30.2H92.9z"/>
		
			<linearGradient id="SVGID_00000145029812643694160780000011671575678937231767_" gradientUnits="userSpaceOnUse" x1="6.4917" y1="44.0205" x2="313.1016" y2="44.0205">
			<stop  offset="0" style="stop-color:#996633"/>
			<stop  offset="0.5" style="stop-color:#FAF2A2"/>
			<stop  offset="0.7373" style="stop-color:#CAAC68"/>
			<stop  offset="1" style="stop-color:#996633"/>
		</linearGradient>
		<path style="fill:url(#SVGID_00000145029812643694160780000011671575678937231767_);" d="M121.6,45.3c-0.8,7.6-7.1,13.4-14.9,13.4
			H96V45.3H121.6z M100.8,42.5c1.2-7,7.3-12.3,14.6-12.3H126v12.3H100.8z"/>
		
			<linearGradient id="SVGID_00000100340708363641821520000013056914547676632226_" gradientUnits="userSpaceOnUse" x1="6.4917" y1="44.0205" x2="313.1016" y2="44.0205">
			<stop  offset="0" style="stop-color:#996633"/>
			<stop  offset="0.5" style="stop-color:#FAF2A2"/>
			<stop  offset="0.7373" style="stop-color:#CAAC68"/>
			<stop  offset="1" style="stop-color:#996633"/>
		</linearGradient>
		<path style="fill:url(#SVGID_00000100340708363641821520000013056914547676632226_);" d="M144,30.2v28.5c-8.3,0-15-6.7-15-15V30.2
			H144z M137.8,15.3c2.8,0,5.1,2.3,5.1,5.1c0,2.8-2.3,5.1-5.1,5.1s-5.1-2.3-5.1-5.1C132.6,17.6,135,15.3,137.8,15.3z"/>
		
			<linearGradient id="SVGID_00000120548703307789388070000012091358927728629131_" gradientUnits="userSpaceOnUse" x1="6.4917" y1="44.0205" x2="313.1016" y2="44.0205">
			<stop  offset="0" style="stop-color:#996633"/>
			<stop  offset="0.5" style="stop-color:#FAF2A2"/>
			<stop  offset="0.7373" style="stop-color:#CAAC68"/>
			<stop  offset="1" style="stop-color:#996633"/>
		</linearGradient>
		<path style="fill:url(#SVGID_00000120548703307789388070000012091358927728629131_);" d="M162.3,55.8c4.3,0,8-2.4,9.9-5.9l3.2,1.6
			c-2.5,4.7-7.5,7.9-13.2,7.9c-8.1,0-14.9-6.8-14.9-14.9c0-8.3,6.6-15,14.9-15V55.8z M170,30.2c2.8,0,5.1,2.3,5.1,5.1
			s-2.3,5.1-5.1,5.1c-2.8,0-5.1-2.3-5.1-5.1S167.2,30.2,170,30.2z"/>
		
			<linearGradient id="SVGID_00000154418522148602233010000013666967807175226555_" gradientUnits="userSpaceOnUse" x1="6.4917" y1="44.0205" x2="313.1016" y2="44.0205">
			<stop  offset="0" style="stop-color:#996633"/>
			<stop  offset="0.5" style="stop-color:#FAF2A2"/>
			<stop  offset="0.7373" style="stop-color:#CAAC68"/>
			<stop  offset="1" style="stop-color:#996633"/>
		</linearGradient>
		<path style="fill:url(#SVGID_00000154418522148602233010000013666967807175226555_);" d="M213.6,45.3c-0.8,7.6-7.1,13.4-14.9,13.4
			H188V45.3H213.6z M192.8,42.5c1.2-7,7.3-12.3,14.6-12.3h10.6v12.3H192.8z"/>
		
			<linearGradient id="SVGID_00000070837808463068115110000010989944698889974688_" gradientUnits="userSpaceOnUse" x1="6.4917" y1="44.0205" x2="313.1016" y2="44.0205">
			<stop  offset="0" style="stop-color:#996633"/>
			<stop  offset="0.5" style="stop-color:#FAF2A2"/>
			<stop  offset="0.7373" style="stop-color:#CAAC68"/>
			<stop  offset="1" style="stop-color:#996633"/>
		</linearGradient>
		<path style="fill:url(#SVGID_00000070837808463068115110000010989944698889974688_);" d="M220.3,72.8V44.4c0-8.3,6.7-15,15-15
			v43.4H220.3z M238.1,59.3c8.3,0,15-6.7,15-15s-6.7-15-15-15V59.3z"/>
		
			<linearGradient id="SVGID_00000121969290036999417700000001237506781689479608_" gradientUnits="userSpaceOnUse" x1="6.4917" y1="44.0205" x2="313.1016" y2="44.0205">
			<stop  offset="0" style="stop-color:#996633"/>
			<stop  offset="0.5" style="stop-color:#FAF2A2"/>
			<stop  offset="0.7373" style="stop-color:#CAAC68"/>
			<stop  offset="1" style="stop-color:#996633"/>
		</linearGradient>
		<path style="fill:url(#SVGID_00000121969290036999417700000001237506781689479608_);" d="M270.6,59.3c-8.3,0-15-6.7-15-15
			s6.7-15,15-15V59.3z M273.4,59.3c8.3,0,15-6.7,15-15s-6.7-15-15-15V59.3z"/>
		
			<linearGradient id="SVGID_00000155118068010078220120000007344272918781773737_" gradientUnits="userSpaceOnUse" x1="6.4917" y1="44.0205" x2="313.1016" y2="44.0205">
			<stop  offset="0" style="stop-color:#996633"/>
			<stop  offset="0.5" style="stop-color:#FAF2A2"/>
			<stop  offset="0.7373" style="stop-color:#CAAC68"/>
			<stop  offset="1" style="stop-color:#996633"/>
		</linearGradient>
		<path style="fill:url(#SVGID_00000155118068010078220120000007344272918781773737_);" d="M307.5,33v25.7c-8.3,0-15-6.7-15-15V33
			h-2.8l17.7-15v12.2h5.6V33H307.5z"/>
	</g>
</g>
</svg>
